<svg width="29" height="32" viewBox="0 0 29 32" fill="none" xmlns="http://www.w3.org/2000/svg">
<path d="M27.26 5.81818H22.04V4.07273C22.04 2.99257 21.6123 1.95666 20.8509 1.19287C20.0895 0.42909 19.0568 0 17.98 0H11.02C9.94322 0 8.91054 0.42909 8.14915 1.19287C7.38775 1.95666 6.96 2.99257 6.96 4.07273V5.81818H1.74C1.27852 5.81818 0.835948 6.00208 0.509634 6.32941C0.183321 6.65675 0 7.10071 0 7.56364C0 8.02656 0.183321 8.47052 0.509634 8.79786C0.835948 9.1252 1.27852 9.30909 1.74 9.30909H2.32V29.0909C2.32 29.8624 2.62553 30.6024 3.16939 31.1479C3.71325 31.6935 4.45087 32 5.22 32H23.78C24.5491 32 25.2868 31.6935 25.8306 31.1479C26.3745 30.6024 26.68 29.8624 26.68 29.0909V9.30909H27.26C27.7215 9.30909 28.1641 9.1252 28.4904 8.79786C28.8167 8.47052 29 8.02656 29 7.56364C29 7.10071 28.8167 6.65675 28.4904 6.32941C28.1641 6.00208 27.7215 5.81818 27.26 5.81818ZM10.44 4.07273C10.44 3.91842 10.5011 3.77043 10.6099 3.66132C10.7186 3.55221 10.8662 3.49091 11.02 3.49091H17.98C18.1338 3.49091 18.2814 3.55221 18.3901 3.66132C18.4989 3.77043 18.56 3.91842 18.56 4.07273V5.81818H10.44V4.07273ZM23.2 28.5091H5.8V9.30909H23.2V28.5091ZM12.76 13.9636V23.2727C12.76 23.7356 12.5767 24.1796 12.2504 24.5069C11.9241 24.8343 11.4815 25.0182 11.02 25.0182C10.5585 25.0182 10.1159 24.8343 9.78963 24.5069C9.46332 24.1796 9.28 23.7356 9.28 23.2727V13.9636C9.28 13.5007 9.46332 13.0567 9.78963 12.7294C10.1159 12.4021 10.5585 12.2182 11.02 12.2182C11.4815 12.2182 11.9241 12.4021 12.2504 12.7294C12.5767 13.0567 12.76 13.5007 12.76 13.9636ZM19.72 13.9636V23.2727C19.72 23.7356 19.5367 24.1796 19.2104 24.5069C18.8841 24.8343 18.4415 25.0182 17.98 25.0182C17.5185 25.0182 17.0759 24.8343 16.7496 24.5069C16.4233 24.1796 16.24 23.7356 16.24 23.2727V13.9636C16.24 13.5007 16.4233 13.0567 16.7496 12.7294C17.0759 12.4021 17.5185 12.2182 17.98 12.2182C18.4415 12.2182 18.8841 12.4021 19.2104 12.7294C19.5367 13.0567 19.72 13.5007 19.72 13.9636Z" fill="black"/>
</svg>
